<svg width="320" height="320" viewBox="0 0 320 320" fill="none" xmlns="http://www.w3.org/2000/svg">
<g clip-path="url(#clip0_2556_6580)">
<rect width="320" height="320" fill="white"/>
<path d="M124.503 211.926C122.856 211.402 121.051 212.008 119.362 212.451C115.656 213.423 111.796 213.654 108.001 213.132C104.206 212.609 100.551 211.343 97.2465 209.405C93.1597 206.979 89.524 203.215 88.7424 198.527C87.4308 190.606 94.5552 183.707 101.908 180.475C109.26 177.244 117.599 175.927 123.965 171.032L106.624 162.531C103.156 160.831 99.5837 159.052 97.0733 156.114C94.563 153.177 93.3748 148.749 95.2765 145.386C97.737 141.039 103.893 140.499 108.699 141.858C117.423 144.326 124.306 150.96 132.498 154.837C133.427 155.275 134.597 155.658 135.41 155.034C136.659 154.081 135.701 152.117 134.71 150.9C120.763 133.776 110.692 113.833 105.192 92.4437C103.99 87.751 103.172 82.2556 106.241 78.494C110.488 73.2662 119.094 75.1653 124.453 79.2495C143.846 94.0281 141.915 125.34 159.215 142.521L167.682 79.6351C168.435 74.0557 169.235 68.3269 171.963 63.4033C174.691 58.4797 179.809 54.469 185.441 54.7523C193.21 55.1563 198.504 63.6027 198.485 71.3828C198.467 79.1629 194.684 86.3581 191.293 93.3592C182.345 111.839 175.444 132.669 179.969 152.694C186.828 147.644 191.374 140.155 196.266 133.183C201.158 126.211 206.955 119.281 214.961 116.377C222.967 113.473 233.585 116.212 236.68 124.141C239.421 131.137 235.558 138.951 230.941 144.882C225.978 151.256 220.273 157.122 213.807 161.98C205.78 168.013 196.518 171.111 187.576 175.42C186.209 176.079 182.647 177.432 183.038 179.444C183.321 180.908 185.441 181.315 186.608 181.74C189.11 182.65 191.723 183.274 194.309 183.883C199.12 185.016 204.015 185.761 208.799 187.03C214.185 188.449 219.554 191.587 222.681 196.387C225.784 201.143 224.929 208.12 221.43 212.433C218.101 216.538 212.432 217.81 207.378 217.298C201.924 216.75 197.462 214.033 192.995 211.066C191.041 209.77 189.081 208.461 186.983 207.394C186.513 207.157 180.779 205.13 180.792 205.421C181.123 213.896 188.305 222.448 190.713 230.658C193.336 239.576 194.535 249.02 192.549 258.2C191.977 260.824 190.899 263.709 188.441 264.816C184.208 266.718 180.047 262.164 177.653 258.187C172.886 250.255 168.286 242.225 163.855 234.097C163.824 241.866 159.745 250.494 152.177 252.254C145.294 253.854 138.377 249.151 134.272 243.398C129.722 236.984 127.437 229.237 127.779 221.38C127.945 217.849 128.042 213.264 124.744 211.994L124.503 211.926ZM128.438 177.435C119.926 178.167 111.597 181.653 104.452 186.251C101.567 188.108 98.2459 190.561 96.47 193.575C94.5735 196.788 96.6563 200.282 99.4263 202.302C102.524 204.558 106.294 205.741 110.081 206.329C119.275 207.75 128.842 205.466 136.703 200.581C140.741 198.089 144.302 194.896 147.219 191.154C150.417 187.028 153.727 183.195 147.56 180.452C141.595 177.802 134.954 176.874 128.44 177.435H128.438ZM115.215 82.51C114.058 82.4156 112.975 82.8615 112.316 84.2964C111.616 85.823 111.902 87.6041 112.245 89.2514C116.031 107.437 124.818 125.56 135.704 140.559C139.142 145.301 142.832 149.855 146.76 154.2C148.796 156.45 151.057 159.076 153.793 160.469C153.948 160.553 154.123 160.591 154.299 160.579C155.107 160.5 155.031 159.336 154.729 158.604C149.84 146.753 144.045 135.258 139.379 123.312C137.611 118.772 135.956 114.189 134.198 109.646C133.11 106.826 132.018 104.001 130.759 101.252C127.74 94.6734 124.445 88.2546 118.386 83.8452C117.458 83.1658 116.303 82.5966 115.215 82.51ZM228.795 128.003C228.676 127.33 228.47 126.676 228.184 126.056C226.873 123.189 223.788 121.335 220.643 121.072C210.373 120.178 204.212 132.333 199.031 139.308C195.516 144.047 192.106 148.856 188.801 153.735C187.08 156.276 185.389 158.836 183.728 161.416C182.416 163.449 180.134 165.967 179.47 168.307C178.838 170.541 181.524 170.754 183.025 170.384C192.266 168.094 199.813 161.523 207.396 156.13C214.911 150.795 230.736 138.707 228.801 128.003H228.795ZM165.227 156.791C165.177 157.77 165.146 158.745 165.14 159.719C165.14 161.292 165.628 163.349 166.567 164.624C168.076 166.667 170.19 165.657 170.392 163.247C171.612 148.743 170.195 134.101 173.015 119.724C175.515 106.905 183.539 96.1423 188.203 84.1311C190.013 79.4593 191.272 74.4781 190.973 69.4758C190.826 67.275 190.351 64.9824 188.99 63.2564C181.383 53.6663 175.748 77.1589 174.825 81.5709C172.288 93.8104 170.785 106.228 169.379 118.656C168.584 125.674 167.819 132.694 167.084 139.717C166.491 145.331 165.523 151.102 165.227 156.791ZM134.274 222.988C134.605 231.269 141.136 239.104 147.127 244.744C155.099 252.241 156.269 231.815 156.083 227.746C155.647 218.154 154.708 208.598 154.27 199.018C154.026 193.711 149.512 198.782 148.03 200.403C142.757 206.145 133.933 214.5 134.272 222.977L134.274 222.988ZM219.09 203.037C218.744 197.9 212.771 194.643 208.138 193.103C199.482 190.199 190.671 187.182 181.587 185.978C179.546 185.716 175.882 185.236 174.683 187.463C173.849 189.013 174.946 190.873 176.047 192.235C183.193 201.006 192.853 206.992 203.59 210.334C208.784 211.947 216.12 212.713 218.521 206.462C218.959 205.372 219.152 204.199 219.087 203.026L219.09 203.037ZM186.713 247.367C186.018 239.002 181.991 231.828 178.982 224.189C175.806 216.144 172.81 208.091 169.141 200.243C166.176 193.9 164.991 200.686 165.468 203.978C167.505 217.626 171.755 230.85 178.051 243.128C179.764 246.47 182.107 252.666 185.191 254.654C186.558 252.435 186.925 249.94 186.71 247.346L186.713 247.367ZM105.942 149.001C105.734 149.038 105.532 149.107 105.344 149.205C105.157 149.307 104.995 149.448 104.87 149.62C104.744 149.792 104.659 149.99 104.62 150.199C104.58 150.407 104.588 150.623 104.642 150.828C104.696 151.034 104.795 151.225 104.932 151.388C106.999 154.011 110.614 155.847 113.363 157.696C116.595 159.893 119.947 161.907 123.404 163.729C129.7 166.985 136.349 169.487 142.789 172.422C144.612 173.254 146.603 174.104 148.56 173.542C148.803 173.479 149.015 173.33 149.158 173.123C149.42 172.716 149.208 172.386 148.99 172.1C147.941 170.733 146.613 169.752 145.281 168.69C139.203 163.892 131.806 160.254 124.933 156.731C121.686 155.065 118.402 153.473 115.049 152.028C112.573 150.96 108.723 148.473 105.939 148.993L105.942 149.001Z" fill="black"/>
</g>
<defs>
<clipPath id="clip0_2556_6580">
<rect width="320" height="320" fill="white"/>
</clipPath>
</defs>
</svg>
